{
	"asset":{
		"generator":"Khronos glTF Blender I/O v3.5.30",
		"version":"2.0"
	},
	"scene":0,
	"scenes":[
		{
			"name":"Scene",
			"nodes":[
				0,
				1,
				2,
				3,
				4
			]
		}
	],
	"nodes":[
		{
			"mesh":0,
			"name":"Plane.002"
		},
		{
			"camera":0,
			"name":"Camera",
			"rotation":[
				-0.014681309461593628,
				-0.9532237648963928,
				-0.04692385718226433,
				0.2982400059700012
			],
			"translation":[
				-0.7207215428352356,
				0.3637498915195465,
				-0.8563683032989502
			]
		},
		{
			"mesh":1,
			"name":"island",
			"scale":[
				5,
				5,
				5
			]
		},
		{
			"mesh":2,
			"name":"water",
			"scale":[
				5,
				5,
				5
			]
		},
		{
			"name":"CameraTarget",
			"translation":[
				0.03331510350108147,
				0.23318293690681458,
				0.23068416118621826
			]
		}
	],
	"cameras":[
		{
			"name":"Camera",
			"perspective":{
				"aspectRatio":0.46205357142857145,
				"yfov":0.691111147403717,
				"zfar":100.30000305175781,
				"znear":0.10000000149011612
			},
			"type":"perspective"
		}
	],
	"materials":[
		{
			"doubleSided":true,
			"name":"Material.003",
			"pbrMetallicRoughness":{
				"baseColorFactor":[
					0.6382714509963989,
					0.5752203464508057,
					0.3698045015335083,
					1
				],
				"metallicFactor":0,
				"roughnessFactor":0.5
			}
		},
		{
			"doubleSided":true,
			"name":"Material",
			"pbrMetallicRoughness":{
				"baseColorTexture":{
					"index":0
				},
				"metallicFactor":0,
				"roughnessFactor":0.5
			}
		},
		{
			"alphaMode":"BLEND",
			"doubleSided":true,
			"name":"Material.002",
			"pbrMetallicRoughness":{}
		}
	],
	"meshes":[
		{
			"name":"Plane.002",
			"primitives":[
				{
					"attributes":{
						"POSITION":0,
						"TEXCOORD_0":1,
						"NORMAL":2
					},
					"indices":3,
					"material":0
				}
			]
		},
		{
			"name":"Plane.004",
			"primitives":[
				{
					"attributes":{
						"POSITION":4,
						"TEXCOORD_0":5,
						"NORMAL":6
					},
					"indices":7,
					"material":1
				}
			]
		},
		{
			"name":"Plane.001",
			"primitives":[
				{
					"attributes":{
						"POSITION":8,
						"TEXCOORD_0":9,
						"NORMAL":10
					},
					"indices":3,
					"material":2
				}
			]
		}
	],
	"textures":[
		{
			"sampler":0,
			"source":0
		}
	],
	"images":[
		{
			"mimeType":"image/png",
			"name":"island_sand",
			"uri":"../texture/island_sand.png"
		}
	],
	"accessors":[
		{
			"bufferView":0,
			"componentType":5126,
			"count":4,
			"max":[
				1,
				0,
				1
			],
			"min":[
				-1,
				0,
				-1
			],
			"type":"VEC3"
		},
		{
			"bufferView":1,
			"componentType":5126,
			"count":4,
			"type":"VEC2"
		},
		{
			"bufferView":2,
			"componentType":5126,
			"count":4,
			"type":"VEC3"
		},
		{
			"bufferView":3,
			"componentType":5123,
			"count":6,
			"type":"SCALAR"
		},
		{
			"bufferView":4,
			"componentType":5126,
			"count":4225,
			"max":[
				1.0543372631072998,
				0.22147664427757263,
				1.0000001192092896
			],
			"min":[
				-1.0000001192092896,
				-0.1729440540075302,
				-1.0000001192092896
			],
			"type":"VEC3"
		},
		{
			"bufferView":5,
			"componentType":5126,
			"count":4225,
			"type":"VEC2"
		},
		{
			"bufferView":6,
			"componentType":5126,
			"count":4225,
			"type":"VEC3"
		},
		{
			"bufferView":7,
			"componentType":5123,
			"count":24576,
			"type":"SCALAR"
		},
		{
			"bufferView":8,
			"componentType":5126,
			"count":4,
			"max":[
				1,
				0,
				1
			],
			"min":[
				-1,
				0,
				-1
			],
			"type":"VEC3"
		},
		{
			"bufferView":9,
			"componentType":5126,
			"count":4,
			"type":"VEC2"
		},
		{
			"bufferView":10,
			"componentType":5126,
			"count":4,
			"type":"VEC3"
		}
	],
	"bufferViews":[
		{
			"buffer":0,
			"byteLength":48,
			"byteOffset":0,
			"target":34962
		},
		{
			"buffer":0,
			"byteLength":32,
			"byteOffset":48,
			"target":34962
		},
		{
			"buffer":0,
			"byteLength":48,
			"byteOffset":80,
			"target":34962
		},
		{
			"buffer":0,
			"byteLength":12,
			"byteOffset":128,
			"target":34963
		},
		{
			"buffer":0,
			"byteLength":50700,
			"byteOffset":140,
			"target":34962
		},
		{
			"buffer":0,
			"byteLength":33800,
			"byteOffset":50840,
			"target":34962
		},
		{
			"buffer":0,
			"byteLength":50700,
			"byteOffset":84640,
			"target":34962
		},
		{
			"buffer":0,
			"byteLength":49152,
			"byteOffset":135340,
			"target":34963
		},
		{
			"buffer":0,
			"byteLength":48,
			"byteOffset":184492,
			"target":34962
		},
		{
			"buffer":0,
			"byteLength":32,
			"byteOffset":184540,
			"target":34962
		},
		{
			"buffer":0,
			"byteLength":48,
			"byteOffset":184572,
			"target":34962
		}
	],
	"samplers":[
		{
			"magFilter":9729,
			"minFilter":9987
		}
	],
	"buffers":[
		{
			"byteLength":184620,
			"uri":"island.bin"
		}
	]
}
