{
	"asset":{
		"generator":"Khronos glTF Blender I/O v3.5.30",
		"version":"2.0"
	},
	"scene":0,
	"scenes":[
		{
			"name":"Scene",
			"nodes":[
				0,
				1,
				2,
				3,
				4,
				5,
				6,
				7,
				8,
				9,
				10,
				11,
				12,
				13,
				14,
				15,
				16,
				17,
				18,
				19
			]
		}
	],
	"nodes":[
		{
			"mesh":0,
			"name":"Plane.002"
		},
		{
			"mesh":1,
			"name":"Environment.001",
			"rotation":[
				-0.024740761145949364,
				0.004284093622118235,
				-0.0356677807867527,
				0.9990482330322266
			],
			"scale":[
				0.3737739026546478,
				0.3737739026546478,
				0.37377384305000305
			],
			"translation":[
				0.22065608203411102,
				0.010653287172317505,
				0.47687673568725586
			]
		},
		{
			"camera":0,
			"name":"Camera",
			"rotation":[
				-0.014681309461593628,
				-0.9532237648963928,
				-0.04692385718226433,
				0.2982400059700012
			],
			"translation":[
				-0.7207215428352356,
				0.3637498915195465,
				-0.8563683032989502
			]
		},
		{
			"mesh":2,
			"name":"island",
			"scale":[
				5,
				5,
				5
			]
		},
		{
			"mesh":3,
			"name":"water",
			"scale":[
				5,
				5,
				5
			]
		},
		{
			"name":"CameraTarget",
			"translation":[
				0.03331510350108147,
				0.23318293690681458,
				0.23068416118621826
			]
		},
		{
			"mesh":4,
			"name":"Rock_7.001",
			"scale":[
				0.050000011920928955,
				0.050000011920928955,
				0.050000011920928955
			],
			"translation":[
				0.007968129590153694,
				0.038625165820121765,
				0.36368370056152344
			]
		},
		{
			"mesh":5,
			"name":"Rock_6.001",
			"scale":[
				0.050000011920928955,
				0.050000011920928955,
				0.050000011920928955
			],
			"translation":[
				-0.14164412021636963,
				0.022446284070611,
				0.17612093687057495
			]
		},
		{
			"mesh":6,
			"name":"Rock_5.001",
			"scale":[
				0.050000011920928955,
				0.050000011920928955,
				0.050000011920928955
			],
			"translation":[
				0.26155081391334534,
				0.008662387728691101,
				0.33362072706222534
			]
		},
		{
			"mesh":7,
			"name":"Rock_4.001",
			"scale":[
				0.050000011920928955,
				0.050000011920928955,
				0.050000011920928955
			],
			"translation":[
				0.19329987466335297,
				0.023589041084051132,
				0.7001034021377563
			]
		},
		{
			"mesh":8,
			"name":"Rock_3.001",
			"scale":[
				0.050000011920928955,
				0.050000011920928955,
				0.050000011920928955
			],
			"translation":[
				0.22363543510437012,
				0,
				0.15680402517318726
			]
		},
		{
			"mesh":9,
			"name":"Rock_2.001",
			"scale":[
				0.050000011920928955,
				0.050000011920928955,
				0.050000011920928955
			],
			"translation":[
				0.13231512904167175,
				0.008992983028292656,
				0.033078402280807495
			]
		},
		{
			"mesh":10,
			"name":"Rock_1.001",
			"scale":[
				0.050000011920928955,
				0.050000011920928955,
				0.050000011920928955
			],
			"translation":[
				0.15603064000606537,
				0.017630185931921005,
				0.44114476442337036
			]
		},
		{
			"mesh":11,
			"name":"Rock_1"
		},
		{
			"mesh":12,
			"name":"Rock_7"
		},
		{
			"mesh":13,
			"name":"Rock_2"
		},
		{
			"mesh":14,
			"name":"Rock_3"
		},
		{
			"mesh":15,
			"name":"Rock_4"
		},
		{
			"mesh":16,
			"name":"Rock_5"
		},
		{
			"mesh":17,
			"name":"Rock_6"
		}
	],
	"cameras":[
		{
			"name":"Camera",
			"perspective":{
				"aspectRatio":0.46205357142857145,
				"yfov":0.691111147403717,
				"zfar":100.30000305175781,
				"znear":0.10000000149011612
			},
			"type":"perspective"
		}
	],
	"materials":[
		{
			"doubleSided":true,
			"name":"Material.003",
			"pbrMetallicRoughness":{
				"baseColorFactor":[
					0.6382714509963989,
					0.5752203464508057,
					0.3698045015335083,
					1
				],
				"metallicFactor":0,
				"roughnessFactor":0.5
			}
		},
		{
			"doubleSided":true,
			"name":"Material",
			"pbrMetallicRoughness":{
				"baseColorTexture":{
					"index":0
				},
				"metallicFactor":0,
				"roughnessFactor":0.5
			}
		},
		{
			"alphaMode":"BLEND",
			"doubleSided":true,
			"name":"Material.002",
			"pbrMetallicRoughness":{}
		},
		{
			"doubleSided":true,
			"name":"Rock.012",
			"pbrMetallicRoughness":{
				"baseColorFactor":[
					0.24421121180057526,
					0.25826212763786316,
					0.30319520831108093,
					1
				],
				"metallicFactor":0,
				"roughnessFactor":0.5
			}
		},
		{
			"doubleSided":true,
			"name":"Rock.007",
			"pbrMetallicRoughness":{
				"baseColorFactor":[
					0.24421121180057526,
					0.25826212763786316,
					0.30319520831108093,
					1
				],
				"metallicFactor":0,
				"roughnessFactor":0.5
			}
		},
		{
			"doubleSided":true,
			"name":"Rock.008",
			"pbrMetallicRoughness":{
				"baseColorFactor":[
					0.24421121180057526,
					0.25826212763786316,
					0.30319520831108093,
					1
				],
				"metallicFactor":0,
				"roughnessFactor":0.5
			}
		},
		{
			"doubleSided":true,
			"name":"Rock.009",
			"pbrMetallicRoughness":{
				"baseColorFactor":[
					0.24421121180057526,
					0.25826212763786316,
					0.30319520831108093,
					1
				],
				"metallicFactor":0,
				"roughnessFactor":0.5
			}
		},
		{
			"doubleSided":true,
			"name":"Rock.010",
			"pbrMetallicRoughness":{
				"baseColorFactor":[
					0.24421121180057526,
					0.25826212763786316,
					0.30319520831108093,
					1
				],
				"metallicFactor":0,
				"roughnessFactor":0.5
			}
		},
		{
			"doubleSided":true,
			"name":"Rock.011",
			"pbrMetallicRoughness":{
				"baseColorFactor":[
					0.24421121180057526,
					0.25826212763786316,
					0.30319520831108093,
					1
				],
				"metallicFactor":0,
				"roughnessFactor":0.5
			}
		},
		{
			"doubleSided":true,
			"name":"Rock.013",
			"pbrMetallicRoughness":{
				"baseColorFactor":[
					0.24421121180057526,
					0.25826212763786316,
					0.30319520831108093,
					1
				],
				"metallicFactor":0,
				"roughnessFactor":0.5
			}
		},
		{
			"doubleSided":true,
			"name":"Rock",
			"pbrMetallicRoughness":{
				"baseColorFactor":[
					0.24421121180057526,
					0.25826212763786316,
					0.30319520831108093,
					1
				],
				"metallicFactor":0,
				"roughnessFactor":0.5
			}
		},
		{
			"doubleSided":true,
			"name":"Rock.001",
			"pbrMetallicRoughness":{
				"baseColorFactor":[
					0.24421121180057526,
					0.25826212763786316,
					0.30319520831108093,
					1
				],
				"metallicFactor":0,
				"roughnessFactor":0.5
			}
		},
		{
			"doubleSided":true,
			"name":"Rock.002",
			"pbrMetallicRoughness":{
				"baseColorFactor":[
					0.24421121180057526,
					0.25826212763786316,
					0.30319520831108093,
					1
				],
				"metallicFactor":0,
				"roughnessFactor":0.5
			}
		},
		{
			"doubleSided":true,
			"name":"Rock.003",
			"pbrMetallicRoughness":{
				"baseColorFactor":[
					0.24421121180057526,
					0.25826212763786316,
					0.30319520831108093,
					1
				],
				"metallicFactor":0,
				"roughnessFactor":0.5
			}
		},
		{
			"doubleSided":true,
			"name":"Rock.004",
			"pbrMetallicRoughness":{
				"baseColorFactor":[
					0.24421121180057526,
					0.25826212763786316,
					0.30319520831108093,
					1
				],
				"metallicFactor":0,
				"roughnessFactor":0.5
			}
		},
		{
			"doubleSided":true,
			"name":"Rock.005",
			"pbrMetallicRoughness":{
				"baseColorFactor":[
					0.24421121180057526,
					0.25826212763786316,
					0.30319520831108093,
					1
				],
				"metallicFactor":0,
				"roughnessFactor":0.5
			}
		},
		{
			"doubleSided":true,
			"name":"Rock.006",
			"pbrMetallicRoughness":{
				"baseColorFactor":[
					0.24421121180057526,
					0.25826212763786316,
					0.30319520831108093,
					1
				],
				"metallicFactor":0,
				"roughnessFactor":0.5
			}
		}
	],
	"meshes":[
		{
			"name":"Plane.002",
			"primitives":[
				{
					"attributes":{
						"POSITION":0,
						"TEXCOORD_0":1,
						"NORMAL":2
					},
					"indices":3,
					"material":0
				}
			]
		},
		{
			"name":"Plane",
			"primitives":[
				{
					"attributes":{
						"POSITION":4,
						"TEXCOORD_0":5,
						"NORMAL":6
					},
					"indices":3
				}
			]
		},
		{
			"name":"Plane.004",
			"primitives":[
				{
					"attributes":{
						"POSITION":7,
						"TEXCOORD_0":8,
						"NORMAL":9
					},
					"indices":10,
					"material":1
				}
			]
		},
		{
			"name":"Plane.001",
			"primitives":[
				{
					"attributes":{
						"POSITION":11,
						"TEXCOORD_0":12,
						"NORMAL":13
					},
					"indices":3,
					"material":2
				}
			]
		},
		{
			"name":"Cube.001",
			"primitives":[
				{
					"attributes":{
						"POSITION":14,
						"NORMAL":15
					},
					"indices":16,
					"material":3
				}
			]
		},
		{
			"name":"Cube.002",
			"primitives":[
				{
					"attributes":{
						"POSITION":17,
						"NORMAL":18
					},
					"indices":19,
					"material":4
				}
			]
		},
		{
			"name":"Cube.003",
			"primitives":[
				{
					"attributes":{
						"POSITION":20,
						"NORMAL":21
					},
					"indices":22,
					"material":5
				}
			]
		},
		{
			"name":"Cube.004",
			"primitives":[
				{
					"attributes":{
						"POSITION":23,
						"NORMAL":24
					},
					"indices":25,
					"material":6
				}
			]
		},
		{
			"name":"Cube.006",
			"primitives":[
				{
					"attributes":{
						"POSITION":26,
						"NORMAL":27
					},
					"indices":28,
					"material":7
				}
			]
		},
		{
			"name":"Cube.007",
			"primitives":[
				{
					"attributes":{
						"POSITION":29,
						"NORMAL":30
					},
					"indices":31,
					"material":8
				}
			]
		},
		{
			"name":"Cube.005",
			"primitives":[
				{
					"attributes":{
						"POSITION":32,
						"NORMAL":33
					},
					"indices":34,
					"material":9
				}
			]
		},
		{
			"name":"Cube.018",
			"primitives":[
				{
					"attributes":{
						"POSITION":35,
						"NORMAL":36
					},
					"indices":34,
					"material":10
				}
			]
		},
		{
			"name":"Cube.030",
			"primitives":[
				{
					"attributes":{
						"POSITION":37,
						"NORMAL":38
					},
					"indices":16,
					"material":11
				}
			]
		},
		{
			"name":"Cube.016",
			"primitives":[
				{
					"attributes":{
						"POSITION":39,
						"NORMAL":40
					},
					"indices":31,
					"material":12
				}
			]
		},
		{
			"name":"Cube.017",
			"primitives":[
				{
					"attributes":{
						"POSITION":41,
						"NORMAL":42
					},
					"indices":28,
					"material":13
				}
			]
		},
		{
			"name":"Cube.022",
			"primitives":[
				{
					"attributes":{
						"POSITION":43,
						"NORMAL":44
					},
					"indices":25,
					"material":14
				}
			]
		},
		{
			"name":"Cube.024",
			"primitives":[
				{
					"attributes":{
						"POSITION":45,
						"NORMAL":46
					},
					"indices":22,
					"material":15
				}
			]
		},
		{
			"name":"Cube.026",
			"primitives":[
				{
					"attributes":{
						"POSITION":47,
						"NORMAL":48
					},
					"indices":19,
					"material":16
				}
			]
		}
	],
	"textures":[
		{
			"sampler":0,
			"source":0
		}
	],
	"images":[
		{
			"mimeType":"image/png",
			"name":"island_sand",
			"uri":"../texture/island_sand.png"
		}
	],
	"accessors":[
		{
			"bufferView":0,
			"componentType":5126,
			"count":4,
			"max":[
				1,
				0,
				1
			],
			"min":[
				-1,
				0,
				-1
			],
			"type":"VEC3"
		},
		{
			"bufferView":1,
			"componentType":5126,
			"count":4,
			"type":"VEC2"
		},
		{
			"bufferView":2,
			"componentType":5126,
			"count":4,
			"type":"VEC3"
		},
		{
			"bufferView":3,
			"componentType":5123,
			"count":6,
			"type":"SCALAR"
		},
		{
			"bufferView":4,
			"componentType":5126,
			"count":4,
			"max":[
				1,
				0,
				1
			],
			"min":[
				-1,
				0,
				-1
			],
			"type":"VEC3"
		},
		{
			"bufferView":5,
			"componentType":5126,
			"count":4,
			"type":"VEC2"
		},
		{
			"bufferView":6,
			"componentType":5126,
			"count":4,
			"type":"VEC3"
		},
		{
			"bufferView":7,
			"componentType":5126,
			"count":4225,
			"max":[
				1.0543372631072998,
				0.22147664427757263,
				1.0000001192092896
			],
			"min":[
				-1.0000001192092896,
				-0.1729440540075302,
				-1.0000001192092896
			],
			"type":"VEC3"
		},
		{
			"bufferView":8,
			"componentType":5126,
			"count":4225,
			"type":"VEC2"
		},
		{
			"bufferView":9,
			"componentType":5126,
			"count":4225,
			"type":"VEC3"
		},
		{
			"bufferView":10,
			"componentType":5123,
			"count":24576,
			"type":"SCALAR"
		},
		{
			"bufferView":11,
			"componentType":5126,
			"count":4,
			"max":[
				1,
				0,
				1
			],
			"min":[
				-1,
				0,
				-1
			],
			"type":"VEC3"
		},
		{
			"bufferView":12,
			"componentType":5126,
			"count":4,
			"type":"VEC2"
		},
		{
			"bufferView":13,
			"componentType":5126,
			"count":4,
			"type":"VEC3"
		},
		{
			"bufferView":14,
			"componentType":5126,
			"count":188,
			"max":[
				0.32235607504844666,
				0.546687662601471,
				0.6453177332878113
			],
			"min":[
				-0.5531898140907288,
				-0.30269351601600647,
				-0.4529522955417633
			],
			"type":"VEC3"
		},
		{
			"bufferView":15,
			"componentType":5126,
			"count":188,
			"type":"VEC3"
		},
		{
			"bufferView":16,
			"componentType":5123,
			"count":282,
			"type":"SCALAR"
		},
		{
			"bufferView":17,
			"componentType":5126,
			"count":224,
			"max":[
				0.38356682658195496,
				0.7136863470077515,
				0.475660502910614
			],
			"min":[
				-0.5284635424613953,
				0.005868185311555862,
				-0.6662905216217041
			],
			"type":"VEC3"
		},
		{
			"bufferView":18,
			"componentType":5126,
			"count":224,
			"type":"VEC3"
		},
		{
			"bufferView":19,
			"componentType":5123,
			"count":348,
			"type":"SCALAR"
		},
		{
			"bufferView":20,
			"componentType":5126,
			"count":184,
			"max":[
				0.34053489565849304,
				0.5895398855209351,
				0.43089672923088074
			],
			"min":[
				-0.32265540957450867,
				-0.06324288994073868,
				-0.4838859438896179
			],
			"type":"VEC3"
		},
		{
			"bufferView":21,
			"componentType":5126,
			"count":184,
			"type":"VEC3"
		},
		{
			"bufferView":22,
			"componentType":5123,
			"count":270,
			"type":"SCALAR"
		},
		{
			"bufferView":23,
			"componentType":5126,
			"count":264,
			"max":[
				0.30408284068107605,
				0.5105112791061401,
				0.6252577900886536
			],
			"min":[
				-0.4394867718219757,
				-0.27312594652175903,
				-0.6252577900886536
			],
			"type":"VEC3"
		},
		{
			"bufferView":24,
			"componentType":5126,
			"count":264,
			"type":"VEC3"
		},
		{
			"bufferView":25,
			"componentType":5123,
			"count":384,
			"type":"SCALAR"
		},
		{
			"bufferView":26,
			"componentType":5126,
			"count":154,
			"max":[
				0.2776001989841461,
				0.554656445980072,
				0.5139904022216797
			],
			"min":[
				-0.46075892448425293,
				-0.12133336812257767,
				-0.2885930836200714
			],
			"type":"VEC3"
		},
		{
			"bufferView":27,
			"componentType":5126,
			"count":154,
			"type":"VEC3"
		},
		{
			"bufferView":28,
			"componentType":5123,
			"count":216,
			"type":"SCALAR"
		},
		{
			"bufferView":29,
			"componentType":5126,
			"count":164,
			"max":[
				0.2776001989841461,
				0.554656445980072,
				0.2764361500740051
			],
			"min":[
				-0.2837722599506378,
				-0.09095931053161621,
				-0.288593053817749
			],
			"type":"VEC3"
		},
		{
			"bufferView":30,
			"componentType":5126,
			"count":164,
			"type":"VEC3"
		},
		{
			"bufferView":31,
			"componentType":5123,
			"count":240,
			"type":"SCALAR"
		},
		{
			"bufferView":32,
			"componentType":5126,
			"count":142,
			"max":[
				0.2429550290107727,
				0.8266485929489136,
				0.2151140421628952
			],
			"min":[
				-0.24236784875392914,
				-0.05110138654708862,
				-0.2516340911388397
			],
			"type":"VEC3"
		},
		{
			"bufferView":33,
			"componentType":5126,
			"count":142,
			"type":"VEC3"
		},
		{
			"bufferView":34,
			"componentType":5123,
			"count":210,
			"type":"SCALAR"
		},
		{
			"bufferView":35,
			"componentType":5126,
			"count":142,
			"max":[
				0.2429550290107727,
				0.8266485929489136,
				0.2151140421628952
			],
			"min":[
				-0.24236784875392914,
				-0.05110138654708862,
				-0.2516340911388397
			],
			"type":"VEC3"
		},
		{
			"bufferView":36,
			"componentType":5126,
			"count":142,
			"type":"VEC3"
		},
		{
			"bufferView":37,
			"componentType":5126,
			"count":188,
			"max":[
				0.32235607504844666,
				0.546687662601471,
				0.6453177332878113
			],
			"min":[
				-0.5531898140907288,
				-0.30269351601600647,
				-0.4529522955417633
			],
			"type":"VEC3"
		},
		{
			"bufferView":38,
			"componentType":5126,
			"count":188,
			"type":"VEC3"
		},
		{
			"bufferView":39,
			"componentType":5126,
			"count":164,
			"max":[
				0.2776001989841461,
				0.554656445980072,
				0.2764361500740051
			],
			"min":[
				-0.2837722599506378,
				-0.09095931053161621,
				-0.288593053817749
			],
			"type":"VEC3"
		},
		{
			"bufferView":40,
			"componentType":5126,
			"count":164,
			"type":"VEC3"
		},
		{
			"bufferView":41,
			"componentType":5126,
			"count":154,
			"max":[
				0.2776001989841461,
				0.554656445980072,
				0.5139904022216797
			],
			"min":[
				-0.46075892448425293,
				-0.12133336812257767,
				-0.2885930836200714
			],
			"type":"VEC3"
		},
		{
			"bufferView":42,
			"componentType":5126,
			"count":154,
			"type":"VEC3"
		},
		{
			"bufferView":43,
			"componentType":5126,
			"count":264,
			"max":[
				0.30408284068107605,
				0.5105112791061401,
				0.6252577900886536
			],
			"min":[
				-0.4394867718219757,
				-0.27312594652175903,
				-0.6252577900886536
			],
			"type":"VEC3"
		},
		{
			"bufferView":44,
			"componentType":5126,
			"count":264,
			"type":"VEC3"
		},
		{
			"bufferView":45,
			"componentType":5126,
			"count":184,
			"max":[
				0.34053489565849304,
				0.5895398855209351,
				0.43089672923088074
			],
			"min":[
				-0.32265540957450867,
				-0.06324288994073868,
				-0.4838859438896179
			],
			"type":"VEC3"
		},
		{
			"bufferView":46,
			"componentType":5126,
			"count":184,
			"type":"VEC3"
		},
		{
			"bufferView":47,
			"componentType":5126,
			"count":224,
			"max":[
				0.38356682658195496,
				0.7136863470077515,
				0.475660502910614
			],
			"min":[
				-0.5284635424613953,
				0.005868185311555862,
				-0.6662905216217041
			],
			"type":"VEC3"
		},
		{
			"bufferView":48,
			"componentType":5126,
			"count":224,
			"type":"VEC3"
		}
	],
	"bufferViews":[
		{
			"buffer":0,
			"byteLength":48,
			"byteOffset":0,
			"target":34962
		},
		{
			"buffer":0,
			"byteLength":32,
			"byteOffset":48,
			"target":34962
		},
		{
			"buffer":0,
			"byteLength":48,
			"byteOffset":80,
			"target":34962
		},
		{
			"buffer":0,
			"byteLength":12,
			"byteOffset":128,
			"target":34963
		},
		{
			"buffer":0,
			"byteLength":48,
			"byteOffset":140,
			"target":34962
		},
		{
			"buffer":0,
			"byteLength":32,
			"byteOffset":188,
			"target":34962
		},
		{
			"buffer":0,
			"byteLength":48,
			"byteOffset":220,
			"target":34962
		},
		{
			"buffer":0,
			"byteLength":50700,
			"byteOffset":268,
			"target":34962
		},
		{
			"buffer":0,
			"byteLength":33800,
			"byteOffset":50968,
			"target":34962
		},
		{
			"buffer":0,
			"byteLength":50700,
			"byteOffset":84768,
			"target":34962
		},
		{
			"buffer":0,
			"byteLength":49152,
			"byteOffset":135468,
			"target":34963
		},
		{
			"buffer":0,
			"byteLength":48,
			"byteOffset":184620,
			"target":34962
		},
		{
			"buffer":0,
			"byteLength":32,
			"byteOffset":184668,
			"target":34962
		},
		{
			"buffer":0,
			"byteLength":48,
			"byteOffset":184700,
			"target":34962
		},
		{
			"buffer":0,
			"byteLength":2256,
			"byteOffset":184748,
			"target":34962
		},
		{
			"buffer":0,
			"byteLength":2256,
			"byteOffset":187004,
			"target":34962
		},
		{
			"buffer":0,
			"byteLength":564,
			"byteOffset":189260,
			"target":34963
		},
		{
			"buffer":0,
			"byteLength":2688,
			"byteOffset":189824,
			"target":34962
		},
		{
			"buffer":0,
			"byteLength":2688,
			"byteOffset":192512,
			"target":34962
		},
		{
			"buffer":0,
			"byteLength":696,
			"byteOffset":195200,
			"target":34963
		},
		{
			"buffer":0,
			"byteLength":2208,
			"byteOffset":195896,
			"target":34962
		},
		{
			"buffer":0,
			"byteLength":2208,
			"byteOffset":198104,
			"target":34962
		},
		{
			"buffer":0,
			"byteLength":540,
			"byteOffset":200312,
			"target":34963
		},
		{
			"buffer":0,
			"byteLength":3168,
			"byteOffset":200852,
			"target":34962
		},
		{
			"buffer":0,
			"byteLength":3168,
			"byteOffset":204020,
			"target":34962
		},
		{
			"buffer":0,
			"byteLength":768,
			"byteOffset":207188,
			"target":34963
		},
		{
			"buffer":0,
			"byteLength":1848,
			"byteOffset":207956,
			"target":34962
		},
		{
			"buffer":0,
			"byteLength":1848,
			"byteOffset":209804,
			"target":34962
		},
		{
			"buffer":0,
			"byteLength":432,
			"byteOffset":211652,
			"target":34963
		},
		{
			"buffer":0,
			"byteLength":1968,
			"byteOffset":212084,
			"target":34962
		},
		{
			"buffer":0,
			"byteLength":1968,
			"byteOffset":214052,
			"target":34962
		},
		{
			"buffer":0,
			"byteLength":480,
			"byteOffset":216020,
			"target":34963
		},
		{
			"buffer":0,
			"byteLength":1704,
			"byteOffset":216500,
			"target":34962
		},
		{
			"buffer":0,
			"byteLength":1704,
			"byteOffset":218204,
			"target":34962
		},
		{
			"buffer":0,
			"byteLength":420,
			"byteOffset":219908,
			"target":34963
		},
		{
			"buffer":0,
			"byteLength":1704,
			"byteOffset":220328,
			"target":34962
		},
		{
			"buffer":0,
			"byteLength":1704,
			"byteOffset":222032,
			"target":34962
		},
		{
			"buffer":0,
			"byteLength":2256,
			"byteOffset":223736,
			"target":34962
		},
		{
			"buffer":0,
			"byteLength":2256,
			"byteOffset":225992,
			"target":34962
		},
		{
			"buffer":0,
			"byteLength":1968,
			"byteOffset":228248,
			"target":34962
		},
		{
			"buffer":0,
			"byteLength":1968,
			"byteOffset":230216,
			"target":34962
		},
		{
			"buffer":0,
			"byteLength":1848,
			"byteOffset":232184,
			"target":34962
		},
		{
			"buffer":0,
			"byteLength":1848,
			"byteOffset":234032,
			"target":34962
		},
		{
			"buffer":0,
			"byteLength":3168,
			"byteOffset":235880,
			"target":34962
		},
		{
			"buffer":0,
			"byteLength":3168,
			"byteOffset":239048,
			"target":34962
		},
		{
			"buffer":0,
			"byteLength":2208,
			"byteOffset":242216,
			"target":34962
		},
		{
			"buffer":0,
			"byteLength":2208,
			"byteOffset":244424,
			"target":34962
		},
		{
			"buffer":0,
			"byteLength":2688,
			"byteOffset":246632,
			"target":34962
		},
		{
			"buffer":0,
			"byteLength":2688,
			"byteOffset":249320,
			"target":34962
		}
	],
	"samplers":[
		{
			"magFilter":9729,
			"minFilter":9987
		}
	],
	"buffers":[
		{
			"byteLength":252008,
			"uri":"island.bin"
		}
	]
}
