{
	"asset":{
		"generator":"Khronos glTF Blender I/O v3.5.30",
		"version":"2.0"
	},
	"scene":0,
	"scenes":[
		{
			"name":"Scene",
			"nodes":[
				0,
				1,
				2,
				3
			]
		}
	],
	"nodes":[
		{
			"camera":0,
			"name":"Camera",
			"rotation":[
				-0.19018250703811646,
				0.4940345883369446,
				0.06268627196550369,
				0.8460679054260254
			],
			"translation":[
				2.9623501300811768,
				2.3493878841400146,
				1.580684781074524
			]
		},
		{
			"mesh":0,
			"name":"Plane.001"
		},
		{
			"mesh":1,
			"name":"Plane.002"
		},
		{
			"mesh":2,
			"name":"Plane"
		}
	],
	"cameras":[
		{
			"name":"Camera",
			"perspective":{
				"aspectRatio":1.3333333333333333,
				"yfov":0.5274236580593781,
				"zfar":100,
				"znear":0.10000000149011612
			},
			"type":"perspective"
		}
	],
	"materials":[
		{
			"alphaMode":"BLEND",
			"doubleSided":true,
			"name":"Material.002",
			"pbrMetallicRoughness":{}
		},
		{
			"doubleSided":true,
			"name":"Material.003",
			"pbrMetallicRoughness":{
				"baseColorFactor":[
					0.6382714509963989,
					0.5752203464508057,
					0.3698045015335083,
					1
				],
				"metallicFactor":0,
				"roughnessFactor":0.5
			}
		}
	],
	"meshes":[
		{
			"name":"Plane.001",
			"primitives":[
				{
					"attributes":{
						"POSITION":0,
						"TEXCOORD_0":1,
						"NORMAL":2
					},
					"indices":3,
					"material":0
				}
			]
		},
		{
			"name":"Plane.002",
			"primitives":[
				{
					"attributes":{
						"POSITION":4,
						"TEXCOORD_0":5,
						"NORMAL":6
					},
					"indices":3,
					"material":1
				}
			]
		},
		{
			"name":"Plane.004",
			"primitives":[
				{
					"attributes":{
						"POSITION":7,
						"TEXCOORD_0":8,
						"NORMAL":9
					},
					"indices":10,
					"material":1
				}
			]
		}
	],
	"accessors":[
		{
			"bufferView":0,
			"componentType":5126,
			"count":4,
			"max":[
				1,
				0,
				1
			],
			"min":[
				-1,
				0,
				-1
			],
			"type":"VEC3"
		},
		{
			"bufferView":1,
			"componentType":5126,
			"count":4,
			"type":"VEC2"
		},
		{
			"bufferView":2,
			"componentType":5126,
			"count":4,
			"type":"VEC3"
		},
		{
			"bufferView":3,
			"componentType":5123,
			"count":6,
			"type":"SCALAR"
		},
		{
			"bufferView":4,
			"componentType":5126,
			"count":4,
			"max":[
				1,
				0,
				1
			],
			"min":[
				-1,
				0,
				-1
			],
			"type":"VEC3"
		},
		{
			"bufferView":5,
			"componentType":5126,
			"count":4,
			"type":"VEC2"
		},
		{
			"bufferView":6,
			"componentType":5126,
			"count":4,
			"type":"VEC3"
		},
		{
			"bufferView":7,
			"componentType":5126,
			"count":4225,
			"max":[
				1.0000001192092896,
				0.22147664427757263,
				1.0000001192092896
			],
			"min":[
				-1.0000001192092896,
				-0.019999999552965164,
				-1.0000001192092896
			],
			"type":"VEC3"
		},
		{
			"bufferView":8,
			"componentType":5126,
			"count":4225,
			"type":"VEC2"
		},
		{
			"bufferView":9,
			"componentType":5126,
			"count":4225,
			"type":"VEC3"
		},
		{
			"bufferView":10,
			"componentType":5123,
			"count":24576,
			"type":"SCALAR"
		}
	],
	"bufferViews":[
		{
			"buffer":0,
			"byteLength":48,
			"byteOffset":0,
			"target":34962
		},
		{
			"buffer":0,
			"byteLength":32,
			"byteOffset":48,
			"target":34962
		},
		{
			"buffer":0,
			"byteLength":48,
			"byteOffset":80,
			"target":34962
		},
		{
			"buffer":0,
			"byteLength":12,
			"byteOffset":128,
			"target":34963
		},
		{
			"buffer":0,
			"byteLength":48,
			"byteOffset":140,
			"target":34962
		},
		{
			"buffer":0,
			"byteLength":32,
			"byteOffset":188,
			"target":34962
		},
		{
			"buffer":0,
			"byteLength":48,
			"byteOffset":220,
			"target":34962
		},
		{
			"buffer":0,
			"byteLength":50700,
			"byteOffset":268,
			"target":34962
		},
		{
			"buffer":0,
			"byteLength":33800,
			"byteOffset":50968,
			"target":34962
		},
		{
			"buffer":0,
			"byteLength":50700,
			"byteOffset":84768,
			"target":34962
		},
		{
			"buffer":0,
			"byteLength":49152,
			"byteOffset":135468,
			"target":34963
		}
	],
	"buffers":[
		{
			"byteLength":184620,
			"uri":"island.bin"
		}
	]
}
